<?xml version="1.0" encoding="iso-8859-1"?>
<!-- Generator: Adobe Illustrator 16.0.0, SVG Export Plug-In . SVG Version: 6.00 Build 0)  -->
<!DOCTYPE svg PUBLIC "-//W3C//DTD SVG 1.1//EN" "http://www.w3.org/Graphics/SVG/1.1/DTD/svg11.dtd">
<svg version="1.1" id="Capa_1" xmlns="http://www.w3.org/2000/svg" xmlns:xlink="http://www.w3.org/1999/xlink" x="0px" y="0px"
	 width="49.597px" height="49.597px" viewBox="0 0 49.597 49.597" style="enable-background:new 0 0 49.597 49.597;"
	 xml:space="preserve">
<g>
	<g>
		<path d="M32.151,33.068c-0.621,0.629-1.32,1.153-2.074,1.562c-0.396,0.522-0.812,1.028-1.279,1.491
			c-1.121,1.113-2.393,1.968-3.774,2.567c0.281,0.045,0.564,0.091,0.853,0.112c1.554,0.117,3.074-0.131,4.486-0.688
			c1.434-0.562,2.754-1.438,3.885-2.562c1.143-1.135,2.092-2.52,2.768-4.076c0.681-1.564,1.084-3.299,1.14-5.12
			c0.057-1.818-0.24-3.546-0.818-5.103c-0.572-1.545-1.42-2.916-2.475-4.045c-1.041-1.116-2.277-1.991-3.646-2.566
			c-1.348-0.565-2.815-0.839-4.352-0.761c-0.388,0.021-0.771,0.062-1.145,0.124c1.387,0.617,2.639,1.505,3.712,2.658
			c0.355,0.379,0.675,0.785,0.98,1.207c0.822,0.43,1.572,1.003,2.213,1.709c0.766,0.843,1.379,1.856,1.791,2.998
			c0.416,1.145,0.627,2.409,0.582,3.738c-0.045,1.335-0.34,2.604-0.832,3.751C33.67,31.213,32.983,32.229,32.151,33.068z"/>
		<path d="M11.598,39.631c1.371,0,2.727-0.26,4.023-0.771c1.532-0.604,2.932-1.523,4.155-2.74c1.234-1.228,2.224-2.684,2.937-4.323
			c0.742-1.708,1.147-3.529,1.207-5.415c0.057-1.88-0.236-3.698-0.869-5.404c-0.605-1.634-1.494-3.085-2.641-4.312
			c-1.129-1.213-2.447-2.141-3.918-2.759c-1.49-0.627-3.07-0.902-4.701-0.822c-1.586,0.08-3.123,0.498-4.568,1.241
			c-1.361,0.702-2.594,1.665-3.654,2.862c-1.045,1.178-1.883,2.531-2.49,4.024c-0.625,1.537-0.981,3.168-1.062,4.844
			c-0.08,1.688,0.123,3.337,0.604,4.904c0.474,1.539,1.193,2.945,2.144,4.184c0.971,1.266,2.137,2.291,3.465,3.055
			c1.412,0.809,2.945,1.278,4.56,1.4C11.055,39.619,11.326,39.631,11.598,39.631z M6.016,32.047
			c-0.619-0.785-1.088-1.688-1.398-2.678c-0.319-1.021-0.457-2.104-0.407-3.209c0.053-1.104,0.287-2.175,0.698-3.184
			c0.398-0.975,0.949-1.854,1.636-2.616c0.686-0.763,1.475-1.37,2.346-1.806c0.906-0.453,1.865-0.699,2.848-0.733
			c0.078-0.002,0.156-0.004,0.234-0.004c0.912,0,1.799,0.188,2.637,0.555c0.897,0.396,1.705,0.982,2.396,1.744
			c0.709,0.781,1.259,1.7,1.632,2.732c0.395,1.086,0.573,2.243,0.532,3.44c-0.039,1.205-0.297,2.369-0.768,3.459
			c-0.449,1.045-1.07,1.974-1.848,2.757c-0.76,0.769-1.625,1.354-2.574,1.739c-0.951,0.391-1.947,0.561-2.959,0.5
			c-0.99-0.061-1.938-0.334-2.811-0.815C7.373,33.47,6.635,32.836,6.016,32.047z"/>
		<path d="M20.818,13.849c-0.531,0.026-1.051,0.107-1.562,0.217c0.715,0.504,1.383,1.087,1.998,1.746
			c0.383,0.41,0.729,0.851,1.059,1.304c0.555,0.104,1.092,0.271,1.603,0.494c1.004,0.439,1.908,1.104,2.667,1.938
			c0.764,0.843,1.379,1.857,1.791,2.998c0.414,1.146,0.625,2.41,0.58,3.739c-0.043,1.334-0.338,2.604-0.832,3.75
			c-0.492,1.146-1.182,2.162-2.014,3c-0.824,0.836-1.79,1.49-2.838,1.92c-0.426,0.175-0.866,0.301-1.317,0.396
			c-0.42,0.558-0.867,1.095-1.363,1.589c-0.627,0.621-1.301,1.168-2.01,1.646c0.407,0.084,0.823,0.147,1.252,0.183
			c1.553,0.117,3.071-0.131,4.485-0.688c1.432-0.562,2.752-1.438,3.885-2.562c1.143-1.135,2.09-2.52,2.766-4.075
			c0.683-1.563,1.084-3.299,1.146-5.12c0.055-1.816-0.242-3.544-0.82-5.103c-0.572-1.545-1.42-2.917-2.477-4.046
			c-1.041-1.116-2.275-1.991-3.646-2.565C23.822,14.042,22.352,13.77,20.818,13.849z"/>
		<path d="M49.233,14.273c0.021-0.923-0.146-1.791-0.47-2.57c-0.319-0.774-0.791-1.461-1.377-2.021
			c-0.58-0.557-1.271-0.988-2.041-1.268c-0.762-0.273-1.6-0.396-2.473-0.33l-6.199,0.459L34.858,5.06
			c-0.066-0.108-0.156-0.225-0.273-0.331c-0.117-0.107-0.262-0.209-0.443-0.293c-0.18-0.084-0.396-0.148-0.655-0.186
			c-0.263-0.037-0.564-0.042-0.916-0.009l-0.437,0.041l-9.582,0.926l-0.397,0.039c-0.316,0.029-0.591,0.092-0.824,0.17
			c-0.234,0.08-0.432,0.18-0.598,0.289s-0.3,0.229-0.41,0.352c-0.109,0.12-0.193,0.241-0.262,0.354l-1.793,3.492l-0.941,0.069
			c-0.045-0.148-0.143-0.285-0.285-0.403c-0.141-0.119-0.326-0.221-0.545-0.3c-0.217-0.077-0.469-0.136-0.744-0.166
			c-0.274-0.03-0.573-0.035-0.887-0.011c-0.34,0.025-0.662,0.085-0.957,0.17c-0.295,0.086-0.561,0.193-0.787,0.319
			c-0.229,0.128-0.416,0.271-0.553,0.428c-0.137,0.153-0.225,0.317-0.25,0.486c-0.518,0.181-1.006,0.457-1.449,0.812
			c-0.287,0.229-0.547,0.501-0.791,0.789c0.547-0.104,1.098-0.185,1.656-0.211c1.826-0.09,3.572,0.219,5.227,0.913
			c0.101,0.042,0.193,0.1,0.293,0.145l25.53-1.485c0.42-0.022,0.817,0.04,1.18,0.179c0.363,0.14,0.689,0.352,0.961,0.623
			c0.273,0.271,0.492,0.604,0.644,0.982c0.147,0.378,0.227,0.8,0.215,1.252l0.266,24.253c-0.014,0.455-0.11,0.883-0.283,1.265
			c-0.172,0.383-0.414,0.721-0.711,0.995c-0.295,0.273-0.645,0.486-1.022,0.624c-0.381,0.135-0.793,0.19-1.226,0.155L16.86,39.619
			c-0.262,0.123-0.52,0.252-0.789,0.356c-1.439,0.565-2.941,0.854-4.463,0.854c-0.301,0-0.602-0.013-0.904-0.034
			c-0.908-0.068-1.793-0.237-2.647-0.505c0.371,0.507,0.813,0.938,1.313,1.258c0.543,0.35,1.15,0.57,1.803,0.637l31.54,3.161
			c0.904,0.09,1.777-0.017,2.582-0.289c0.812-0.272,1.549-0.717,2.178-1.297c0.631-0.581,1.15-1.3,1.521-2.116
			c0.365-0.818,0.58-1.736,0.604-2.72L49.233,14.273z"/>
	</g>
</g>
<g>
</g>
<g>
</g>
<g>
</g>
<g>
</g>
<g>
</g>
<g>
</g>
<g>
</g>
<g>
</g>
<g>
</g>
<g>
</g>
<g>
</g>
<g>
</g>
<g>
</g>
<g>
</g>
<g>
</g>
</svg>
